<?xml version="1.0" encoding="utf-8"?><svg xmlns="http://www.w3.org/2000/svg" xmlns:xlink="http://www.w3.org/1999/xlink"><symbol viewBox="0 0 477.175 477.175" id="back" xmlns="http://www.w3.org/2000/svg"><path d="M145.188 238.575l215.5-215.5c5.3-5.3 5.3-13.8 0-19.1s-13.8-5.3-19.1 0l-225.1 225.1c-5.3 5.3-5.3 13.8 0 19.1l225.1 225c2.6 2.6 6.1 4 9.5 4s6.9-1.3 9.5-4c5.3-5.3 5.3-13.8 0-19.1l-215.4-215.5z"/></symbol><symbol viewBox="-3 0 512 512" id="basket" xmlns="http://www.w3.org/2000/svg"><path d="M494.926 97.145c-9.492-10.84-23.02-16.813-38.09-16.813H343.05V15c0-8.285-6.715-15-15-15h-80.332c-8.285 0-15 6.715-15 15v65.332H92.402l-3.668-27.5C84.781 23.207 64.156 0 41.777 0H15C6.715 0 0 6.715 0 15s6.715 15 15 15h26.777c4.813 0 15.004 10.176 17.22 26.797l42.937 322.039c1.89 14.195 9.183 27.484 20.535 37.422 8.418 7.37 18.367 12.273 28.789 14.324a54.792 54.792 0 00-6.656 26.25c0 30.422 24.746 55.168 55.164 55.168s55.168-24.746 55.168-55.168a54.78 54.78 0 00-6.102-25.164h78.602a54.78 54.78 0 00-6.102 25.164c0 30.422 24.746 55.168 55.168 55.168 30.418 0 55.164-24.746 55.164-55.168 0-9.062-2.21-17.613-6.098-25.164h39.301c8.281 0 15-6.719 15-15 0-8.285-6.719-15-15-15h-302.59c-14.656 0-28.672-12.273-30.609-26.8l-3.137-23.536H424.7c14.32 0 28.457-5.473 39.809-15.406 11.347-9.938 18.64-23.23 20.539-37.426l21.512-161.367c1.992-14.942-2.137-29.145-11.633-39.988zM224.934 456.832c0 13.879-11.29 25.168-25.168 25.168-13.875 0-25.164-11.29-25.164-25.168 0-13.875 11.289-25.164 25.164-25.164 13.879 0 25.168 11.289 25.168 25.164zm176.734 0c0 13.879-11.29 25.168-25.168 25.168-13.875 0-25.164-11.29-25.164-25.168 0-13.875 11.289-25.164 25.164-25.164 13.879 0 25.168 11.289 25.168 25.164zM262.718 30h50.333v65.16c0 .059-.008.113-.008.172 0 .059.008.117.008.176v80.16c0 8.281 6.715 15 15 15h5.289l-44.559 44.203-44.558-44.203h3.496c8.285 0 15-6.719 15-15zM476.82 133.164l-21.51 161.371c-1.938 14.524-15.954 26.797-30.61 26.797H124.531l-28.129-211H232.72v50.336H207.8a14.996 14.996 0 00-13.867 9.285 14.997 14.997 0 003.304 16.363l80.98 80.332c2.923 2.903 6.743 4.352 10.563 4.352s7.64-1.45 10.563-4.352l80.98-80.332a14.997 14.997 0 003.305-16.363 14.996 14.996 0 00-13.867-9.285H343.05v-50.336h113.785c6.297 0 11.809 2.336 15.52 6.574 3.71 4.242 5.296 10.016 4.464 16.258zm0 0"/></symbol><symbol viewBox="0 0 31.112 31.112" id="cross" xmlns="http://www.w3.org/2000/svg"><path d="M31.112 1.414L29.698 0 15.556 14.142 1.414 0 0 1.414l14.142 14.142L0 29.698l1.414 1.414L15.556 16.97l14.142 14.142 1.414-1.414L16.97 15.556z"/></symbol><symbol viewBox="0 0 512 512" id="location" xmlns="http://www.w3.org/2000/svg"><path d="M256 0C156.748 0 76 80.748 76 180c0 33.534 9.289 66.26 26.869 94.652l142.885 230.257A15 15 0 00258.499 512h.119a14.997 14.997 0 0012.75-7.292L410.611 272.22C427.221 244.428 436 212.539 436 180 436 80.748 355.252 0 256 0zm128.866 256.818L258.272 468.186l-129.905-209.34C113.734 235.214 105.8 207.95 105.8 180c0-82.71 67.49-150.2 150.2-150.2S406.1 97.29 406.1 180c0 27.121-7.411 53.688-21.234 76.818z"/><path d="M256 90c-49.626 0-90 40.374-90 90 0 49.309 39.717 90 90 90 50.903 0 90-41.233 90-90 0-49.626-40.374-90-90-90zm0 150.2c-33.257 0-60.2-27.033-60.2-60.2 0-33.084 27.116-60.2 60.2-60.2s60.1 27.116 60.1 60.2c0 32.683-26.316 60.2-60.1 60.2z"/></symbol><symbol viewBox="0 0 477.175 477.175" id="next" xmlns="http://www.w3.org/2000/svg"><path d="M360.731 229.075l-225.1-225.1c-5.3-5.3-13.8-5.3-19.1 0s-5.3 13.8 0 19.1l215.5 215.5-215.5 215.5c-5.3 5.3-5.3 13.8 0 19.1 2.6 2.6 6.1 4 9.5 4 3.4 0 6.9-1.3 9.5-4l225.1-225.1c5.3-5.2 5.3-13.8.1-19z"/></symbol><symbol viewBox="0 0 444.819 444.819" id="right-chevron" xmlns="http://www.w3.org/2000/svg"><path d="M352.025 196.712L165.884 10.848C159.029 3.615 150.469 0 140.187 0s-18.842 3.619-25.697 10.848L92.792 32.264c-7.044 7.043-10.566 15.604-10.566 25.692 0 9.897 3.521 18.56 10.566 25.981L231.545 222.41 92.786 361.168c-7.042 7.043-10.564 15.604-10.564 25.693 0 9.896 3.521 18.562 10.564 25.98l21.7 21.413c7.043 7.043 15.612 10.564 25.697 10.564 10.089 0 18.656-3.521 25.697-10.564L352.025 248.39c7.046-7.423 10.571-16.084 10.571-25.981.001-10.088-3.525-18.654-10.571-25.697z"/></symbol><symbol viewBox="0 0 56.966 56.966" id="search" xmlns="http://www.w3.org/2000/svg"><path d="M55.146 51.887L41.588 37.786A22.926 22.926 0 0046.984 23c0-12.682-10.318-23-23-23s-23 10.318-23 23 10.318 23 23 23c4.761 0 9.298-1.436 13.177-4.162l13.661 14.208c.571.593 1.339.92 2.162.92.779 0 1.518-.297 2.079-.837a3.004 3.004 0 00.083-4.242zM23.984 6c9.374 0 17 7.626 17 17s-7.626 17-17 17-17-7.626-17-17 7.626-17 17-17z"/></symbol></svg>