<?xml version="1.0" encoding="utf-8"?><svg xmlns="http://www.w3.org/2000/svg" xmlns:xlink="http://www.w3.org/1999/xlink"><symbol viewBox="0 0 477.175 477.175" id="back" xmlns="http://www.w3.org/2000/svg"><path d="M145.188 238.575l215.5-215.5c5.3-5.3 5.3-13.8 0-19.1s-13.8-5.3-19.1 0l-225.1 225.1c-5.3 5.3-5.3 13.8 0 19.1l225.1 225c2.6 2.6 6.1 4 9.5 4s6.9-1.3 9.5-4c5.3-5.3 5.3-13.8 0-19.1l-215.4-215.5z"/></symbol><symbol viewBox="-3 0 512 512" id="basket" xmlns="http://www.w3.org/2000/svg"><path d="M494.926 97.145c-9.492-10.84-23.02-16.813-38.09-16.813H343.05V15c0-8.285-6.715-15-15-15h-80.332c-8.285 0-15 6.715-15 15v65.332H92.402l-3.668-27.5C84.781 23.207 64.156 0 41.777 0H15C6.715 0 0 6.715 0 15s6.715 15 15 15h26.777c4.813 0 15.004 10.176 17.22 26.797l42.937 322.039c1.89 14.195 9.183 27.484 20.535 37.422 8.418 7.37 18.367 12.273 28.789 14.324a54.792 54.792 0 00-6.656 26.25c0 30.422 24.746 55.168 55.164 55.168s55.168-24.746 55.168-55.168a54.78 54.78 0 00-6.102-25.164h78.602a54.78 54.78 0 00-6.102 25.164c0 30.422 24.746 55.168 55.168 55.168 30.418 0 55.164-24.746 55.164-55.168 0-9.062-2.21-17.613-6.098-25.164h39.301c8.281 0 15-6.719 15-15 0-8.285-6.719-15-15-15h-302.59c-14.656 0-28.672-12.273-30.609-26.8l-3.137-23.536H424.7c14.32 0 28.457-5.473 39.809-15.406 11.347-9.938 18.64-23.23 20.539-37.426l21.512-161.367c1.992-14.942-2.137-29.145-11.633-39.988zM224.934 456.832c0 13.879-11.29 25.168-25.168 25.168-13.875 0-25.164-11.29-25.164-25.168 0-13.875 11.289-25.164 25.164-25.164 13.879 0 25.168 11.289 25.168 25.164zm176.734 0c0 13.879-11.29 25.168-25.168 25.168-13.875 0-25.164-11.29-25.164-25.168 0-13.875 11.289-25.164 25.164-25.164 13.879 0 25.168 11.289 25.168 25.164zM262.718 30h50.333v65.16c0 .059-.008.113-.008.172 0 .059.008.117.008.176v80.16c0 8.281 6.715 15 15 15h5.289l-44.559 44.203-44.558-44.203h3.496c8.285 0 15-6.719 15-15zM476.82 133.164l-21.51 161.371c-1.938 14.524-15.954 26.797-30.61 26.797H124.531l-28.129-211H232.72v50.336H207.8a14.996 14.996 0 00-13.867 9.285 14.997 14.997 0 003.304 16.363l80.98 80.332c2.923 2.903 6.743 4.352 10.563 4.352s7.64-1.45 10.563-4.352l80.98-80.332a14.997 14.997 0 003.305-16.363 14.996 14.996 0 00-13.867-9.285H343.05v-50.336h113.785c6.297 0 11.809 2.336 15.52 6.574 3.71 4.242 5.296 10.016 4.464 16.258zm0 0"/></symbol><symbol viewBox="0 0 31.112 31.112" id="cross" xmlns="http://www.w3.org/2000/svg"><path d="M31.112 1.414L29.698 0 15.556 14.142 1.414 0 0 1.414l14.142 14.142L0 29.698l1.414 1.414L15.556 16.97l14.142 14.142 1.414-1.414L16.97 15.556z"/></symbol><symbol viewBox="0 0 512 512.001" id="key" xmlns="http://www.w3.org/2000/svg"><path d="M50 451.992c-5.523 0-10 4.477-10 10V462c0 5.52 4.477 9.996 10 9.996s10-4.48 10-10.004c0-5.523-4.477-10-10-10zM502 0h-80c-5.523 0-10 4.477-10 10v10.438l-13.344-.083h-.062c-5.492 0-9.965 4.434-10 9.934-.035 5.523 4.414 10.031 9.937 10.066l13.469.083v103.75c-26.184 16.492-49.816 6.996-74.762-3.051-16.437-6.621-33.441-13.465-50.406-11.336-5.352.672-19.797 2.77-35.086 4.988-14.488 2.102-29.473 4.277-34.625 4.926-2.621.328-5.234-.403-7.36-2.055a10.207 10.207 0 01-3.886-6.836c-.219-1.77-.8-6.476 11.73-12.293 26.528-12.3 54.797-22.832 77.563-28.89 5.336-1.422 8.512-6.899 7.09-12.239-1.418-5.336-6.895-8.507-12.235-7.09-23.836 6.344-53.3 17.31-80.832 30.079-9.578 4.441-15.464 9.609-18.933 14.82L90 142.55c-10.547 2.652-15.957-1.547-17.508-6.363-1.523-4.743.317-10.856 7.86-13.833 7.847-2.988 26.578-11.234 50.28-21.664 31.415-13.824 70.505-31.03 101.677-43.675 37.043-15.028 48.332-17.293 86.257-17.157h.032c5.507 0 9.98-4.457 10-9.968.015-5.524-4.45-10.016-9.973-10.032-40.453-.136-54.488 2.664-93.832 18.625-31.445 12.754-70.684 30.024-102.215 43.899-22.566 9.933-42.058 18.512-49.394 21.3l-.094.036c-18.684 7.328-24.02 24.96-19.637 38.59 4.317 13.43 19.16 25.293 41.547 19.609.059-.016.113-.027.172-.047l91.527-24.957c1.625 6.54 5.367 12.316 10.778 16.527 6.347 4.942 14.21 7.114 22.136 6.118 5.344-.672 19.75-2.766 35.004-4.977 14.528-2.11 29.543-4.289 34.707-4.937 11.817-1.485 25.723 4.113 40.442 10.042 15.597 6.282 33.367 13.442 52.597 13.438 9.547 0 19.457-1.781 29.637-6.297V170c0 5.523 4.477 10 10 10h80c5.523 0 10-4.477 10-10V10c0-5.523-4.477-10-10-10zm-10 160h-60V20h60zm0 0"/><path d="M462 60.008c5.523 0 10-4.477 10-10V50c0-5.52-4.477-9.996-10-9.996s-10 4.48-10 10.004c0 5.523 4.477 10 10 10zM186 326c23.73 0 44.73-11.883 57.395-30h36.945a10 10 0 007.07-2.93L304.48 276h11.72l17.07 17.07a10 10 0 007.07 2.93H356a10 10 0 007.07-2.93l30-30A10 10 0 00396 256v-30c0-5.52-4.477-10-10-10H243.398c-12.668-18.117-33.664-30-57.398-30-38.598 0-70 31.402-70 70s31.402 70 70 70zm190-90v15.86L351.86 276h-7.376l-17.074-17.07a10 10 0 00-7.07-2.93h-20a10 10 0 00-7.07 2.93L276.2 276h-23.126c1.895-6.34 2.926-13.05 2.926-20s-1.031-13.66-2.926-20zm-190-30c27.57 0 50 22.43 50 50s-22.43 50-50 50-50-22.43-50-50 22.43-50 50-50zm0 0"/><path d="M166 266c5.523 0 10-4.48 10-10.004 0-5.523-4.477-10-10-10s-10 4.477-10 10v.008c0 5.523 4.477 9.996 10 9.996zM358.594 40.105h.004c5.523 0 9.996-4.48 9.996-10 0-5.523-4.48-10-10-10-5.524 0-10 4.477-10 10 0 5.52 4.476 10 10 10zM417 350.082c-.059.016-.113.027-.172.047l-91.527 24.957c-1.625-6.54-5.367-12.316-10.778-16.527-6.347-4.942-14.21-7.114-22.136-6.118-5.344.672-19.75 2.766-35.004 4.977-14.528 2.11-29.543 4.289-34.707 4.937-11.813 1.48-25.723-4.113-40.442-10.043-23.343-9.398-51.558-20.757-82.234-7.152v-3.156c0-5.524-4.477-10-10-10H10c-5.523 0-10 4.476-10 10V502c0 5.523 4.477 10 10 10h80c5.523 0 10-4.477 10-10v-10.438l13.344.083h.062c5.492 0 9.965-4.434 10-9.938.035-5.52-4.414-10.027-9.937-10.062L100 471.562v-103.75c26.184-16.492 49.816-6.996 74.762 3.047 16.441 6.625 33.449 13.47 50.406 11.336 5.355-.672 19.797-2.765 35.086-4.984 14.488-2.106 29.473-4.277 34.625-4.926 2.621-.328 5.234.399 7.36 2.055a10.192 10.192 0 013.886 6.836c.219 1.77.805 6.476-11.73 12.289-26.528 12.305-54.793 22.836-77.56 28.894-5.335 1.422-8.51 6.899-7.093 12.235 1.422 5.34 6.903 8.508 12.235 7.094 23.836-6.344 53.3-17.31 80.836-30.079 9.574-4.441 15.46-9.609 18.933-14.82L422 369.45c10.543-2.656 15.957 1.547 17.508 6.364 1.523 4.742-.317 10.855-7.856 13.832-7.843 2.988-26.582 11.234-50.289 21.668-31.41 13.824-70.5 31.027-101.672 43.671-37.043 15.028-48.355 17.301-86.257 17.157h-.032c-5.507 0-9.98 4.457-10 9.968-.015 5.524 4.45 10.016 9.973 10.032.816.004 1.621.004 2.418.004 38.617 0 52.867-2.989 91.414-18.63 31.441-12.753 70.684-30.023 102.211-43.898 22.57-9.933 42.062-18.512 49.395-21.3l.097-.036c18.684-7.328 24.02-24.96 19.637-38.59-4.317-13.425-19.16-25.289-41.547-19.609zM20 492V352h60v140zm0 0"/><path d="M153.41 471.895h-.008c-5.523 0-9.996 4.48-9.996 10 0 5.523 4.48 10 10.004 10 5.524 0 10-4.477 10-10 0-5.52-4.476-10-10-10zm0 0"/></symbol><symbol viewBox="0 0 512 512" id="location" xmlns="http://www.w3.org/2000/svg"><path d="M256 0C156.748 0 76 80.748 76 180c0 33.534 9.289 66.26 26.869 94.652l142.885 230.257A15 15 0 00258.499 512h.119a14.997 14.997 0 0012.75-7.292L410.611 272.22C427.221 244.428 436 212.539 436 180 436 80.748 355.252 0 256 0zm128.866 256.818L258.272 468.186l-129.905-209.34C113.734 235.214 105.8 207.95 105.8 180c0-82.71 67.49-150.2 150.2-150.2S406.1 97.29 406.1 180c0 27.121-7.411 53.688-21.234 76.818z"/><path d="M256 90c-49.626 0-90 40.374-90 90 0 49.309 39.717 90 90 90 50.903 0 90-41.233 90-90 0-49.626-40.374-90-90-90zm0 150.2c-33.257 0-60.2-27.033-60.2-60.2 0-33.084 27.116-60.2 60.2-60.2s60.1 27.116 60.1 60.2c0 32.683-26.316 60.2-60.1 60.2z"/></symbol><symbol viewBox="0 0 478.856 478.856" id="money" xmlns="http://www.w3.org/2000/svg"><path d="M406.872 160.017H6.856A6.848 6.848 0 000 166.857v192.016a6.848 6.848 0 006.84 6.856h272.016a6.857 6.857 0 000-13.712H13.712V173.729H400v17.144a6.848 6.848 0 006.84 6.856h.016a6.848 6.848 0 006.856-6.84v-24.016a6.849 6.849 0 00-6.84-6.856zm-46.512-31.832l-320-72a6.885 6.885 0 00-5.176.896 6.897 6.897 0 00-3.024 4.304l-16 72a6.86 6.86 0 0013.392 2.976l14.504-65.288 313.296 70.488a6.857 6.857 0 003.008-13.376zm-38.856-39.672l-192-80a6.88 6.88 0 00-8.8 3.272l-16 32a6.88 6.88 0 1012.304 6.143v.016l13.128-26.272L316.208 101.2a6.874 6.874 0 005.296-12.687z"/><path d="M326.352 192.017h-63.496a6.857 6.857 0 000 13.712h63.496a6.857 6.857 0 000-13.712zm-127.496.456c-38.881 0-70.4 31.519-70.4 70.4.04 38.864 31.536 70.36 70.4 70.4 38.881 0 70.4-31.519 70.4-70.4s-31.519-70.4-70.4-70.4zm0 128c-31.812 0-57.6-25.788-57.6-57.6.035-31.797 25.803-57.565 57.6-57.6 31.812 0 57.6 25.788 57.6 57.6s-25.788 57.6-57.6 57.6zm192-105.6c-42.4 0-88 10.016-88 32v192c0 21.984 45.6 32 88 32s88-10.016 88-32v-192c0-21.984-45.6-32-88-32zm72 223.88c-1.208 4.44-25.2 16.12-72 16.12s-70.792-11.68-72-16v-12.576c17.024 8.576 45.144 12.576 72 12.576s54.984-4.04 72-12.584v12.464zm0-32c-1.208 4.44-25.2 16.12-72 16.12s-70.792-11.68-72-16v-12.576c17.024 8.576 45.144 12.576 72 12.576s54.984-4.04 72-12.584v12.464zm0-32c-1.208 4.44-25.2 16.12-72 16.12s-70.792-11.68-72-16v-12.576c17.024 8.576 45.144 12.576 72 12.576s54.984-4.04 72-12.584v12.464zm0-32c-1.208 4.44-25.2 16.12-72 16.12s-70.792-11.68-72-16v-12.576c17.024 8.576 45.144 12.576 72 12.576s54.984-4.04 72-12.584v12.464zm0-32c-1.208 4.44-25.2 16.12-72 16.12s-70.792-11.68-72-16v-12.576c17.024 8.536 45.144 12.576 72 12.576s54.984-4.04 72-12.584v12.464zm0-32c-1.208 4.44-25.2 16.12-72 16.12s-70.792-11.68-72-16v-12.576c17.024 8.536 45.144 12.576 72 12.576s54.984-4.04 72-12.584v12.464zm-72-15.88c-46.728 0-70.712-11.648-72-15.856v-.048c1.288-4.456 25.272-16.096 72-16.096 46.4 0 70.4 11.472 72 16-1.6 4.528-25.6 16-72 16z"/><path d="M134.856 320.009H74.384l-28.672-31.36v-52l31.664-30.92h57.48a6.857 6.857 0 000-13.712H74.592a6.863 6.863 0 00-4.8 1.944l-35.736 34.856a8.594 8.594 0 00-2.064 5.6v56.896a6.86 6.86 0 001.792 4.624l32.504 35.552a6.855 6.855 0 005.064 2.232h63.504a6.857 6.857 0 000-13.712zm68-65.136h-8c-2.488 0-4-1.392-4-2 0-.608 1.512-2 4-2h20a8 8 0 000-16h-8a8 8 0 00-16 0v.36a18.624 18.624 0 00-16 17.6c.573 10.489 9.507 18.548 20 18.04h8c2.488 0 4 1.392 4 2 0 .608-1.512 2-4 2h-20a8 8 0 000 16h8a8 8 0 0016 0v-.36a18.624 18.624 0 0016-17.6c-.573-10.489-9.507-18.548-20-18.04z"/></symbol><symbol viewBox="0 0 477.175 477.175" id="next" xmlns="http://www.w3.org/2000/svg"><path d="M360.731 229.075l-225.1-225.1c-5.3-5.3-13.8-5.3-19.1 0s-5.3 13.8 0 19.1l215.5 215.5-215.5 215.5c-5.3 5.3-5.3 13.8 0 19.1 2.6 2.6 6.1 4 9.5 4 3.4 0 6.9-1.3 9.5-4l225.1-225.1c5.3-5.2 5.3-13.8.1-19z"/></symbol><symbol viewBox="0 0 444.819 444.819" id="right-chevron" xmlns="http://www.w3.org/2000/svg"><path d="M352.025 196.712L165.884 10.848C159.029 3.615 150.469 0 140.187 0s-18.842 3.619-25.697 10.848L92.792 32.264c-7.044 7.043-10.566 15.604-10.566 25.692 0 9.897 3.521 18.56 10.566 25.981L231.545 222.41 92.786 361.168c-7.042 7.043-10.564 15.604-10.564 25.693 0 9.896 3.521 18.562 10.564 25.98l21.7 21.413c7.043 7.043 15.612 10.564 25.697 10.564 10.089 0 18.656-3.521 25.697-10.564L352.025 248.39c7.046-7.423 10.571-16.084 10.571-25.981.001-10.088-3.525-18.654-10.571-25.697z"/></symbol><symbol viewBox="0 0 56.966 56.966" id="search" xmlns="http://www.w3.org/2000/svg"><path d="M55.146 51.887L41.588 37.786A22.926 22.926 0 0046.984 23c0-12.682-10.318-23-23-23s-23 10.318-23 23 10.318 23 23 23c4.761 0 9.298-1.436 13.177-4.162l13.661 14.208c.571.593 1.339.92 2.162.92.779 0 1.518-.297 2.079-.837a3.004 3.004 0 00.083-4.242zM23.984 6c9.374 0 17 7.626 17 17s-7.626 17-17 17-17-7.626-17-17 7.626-17 17-17z"/></symbol><symbol viewBox="0 0 512 512" id="shipped" xmlns="http://www.w3.org/2000/svg"><path d="M476.158 231.363l-13.259-53.035c3.625-.77 6.345-3.986 6.345-7.839v-8.551c0-18.566-15.105-33.67-33.67-33.67h-60.392V110.63c0-9.136-7.432-16.568-16.568-16.568H50.772c-9.136 0-16.568 7.432-16.568 16.568V256a8.017 8.017 0 0016.034 0V110.63c0-.295.239-.534.534-.534h307.841c.295 0 .534.239.534.534v145.372a8.017 8.017 0 0016.034 0v-9.088h94.569l.021.002.022-.001c11.637.008 21.518 7.646 24.912 18.171h-24.928a8.017 8.017 0 00-8.017 8.017v17.102c0 13.851 11.268 25.119 25.119 25.119h9.086v35.273h-20.962c-6.886-19.883-25.787-34.205-47.982-34.205s-41.097 14.322-47.982 34.205h-3.86v-60.393a8.017 8.017 0 00-16.034 0v60.391H192.817c-6.886-19.883-25.787-34.205-47.982-34.205s-41.097 14.322-47.982 34.205H50.772a.534.534 0 01-.534-.534v-17.637h34.739a8.017 8.017 0 000-16.034H8.017a8.017 8.017 0 000 16.034h26.188v17.637c0 9.136 7.432 16.568 16.568 16.568h43.304c-.002.178-.014.355-.014.534 0 27.996 22.777 50.772 50.772 50.772s50.772-22.776 50.772-50.772c0-.18-.012-.356-.014-.534h180.67c-.002.178-.014.355-.014.534 0 27.996 22.777 50.772 50.772 50.772 27.995 0 50.772-22.776 50.772-50.772 0-.18-.012-.356-.014-.534h26.203a8.017 8.017 0 008.017-8.017v-85.511c.001-21.112-15.576-38.653-35.841-41.738zm-100.976-87.062h60.392c9.725 0 17.637 7.912 17.637 17.637v.534h-78.029v-18.171zm0 86.58v-52.376h71.235l13.094 52.376h-84.329zM144.835 401.904c-19.155 0-34.739-15.583-34.739-34.739s15.584-34.739 34.739-34.739c19.155 0 34.739 15.583 34.739 34.739s-15.584 34.739-34.739 34.739zm282.188 0c-19.155 0-34.739-15.583-34.739-34.739s15.584-34.739 34.739-34.739c19.155 0 34.739 15.583 34.739 34.739s-15.584 34.739-34.739 34.739zm68.944-102.614h-9.086c-5.01 0-9.086-4.076-9.086-9.086v-9.086h18.171v18.172z"/><path d="M144.835 350.597c-9.136 0-16.568 7.432-16.568 16.568 0 9.136 7.432 16.568 16.568 16.568 9.136 0 16.568-7.432 16.568-16.568 0-9.136-7.432-16.568-16.568-16.568zm282.188 0c-9.136 0-16.568 7.432-16.568 16.568 0 9.136 7.432 16.568 16.568 16.568 9.136 0 16.568-7.432 16.568-16.568 0-9.136-7.432-16.568-16.568-16.568zm-94.063-34.204H213.244a8.017 8.017 0 000 16.034H332.96a8.017 8.017 0 000-16.034zm-205.227-34.205H25.119a8.017 8.017 0 000 16.034h102.614a8.017 8.017 0 000-16.034zM278.771 173.37a8.017 8.017 0 00-11.337.001l-71.292 71.291-37.087-37.087a8.016 8.016 0 00-11.337 0 8.016 8.016 0 000 11.337l42.756 42.756c1.565 1.566 3.617 2.348 5.668 2.348s4.104-.782 5.668-2.348l76.96-76.96a8.018 8.018 0 00.001-11.338z"/></symbol></svg>